<svg id="图层_1" data-name="图层 1" xmlns="http://www.w3.org/2000/svg" viewBox="0 0 194 193.27"><title>consultation</title><path d="M77.38,141a1.37,1.37,0,0,1,2.07-1.75S84,143,94,143a46.93,46.93,0,0,0,6.22-.43c14.34-1.94,18-7.9,18.07-8A1.39,1.39,0,0,1,120,134a1.38,1.38,0,0,1,.87,1.73A24.06,24.06,0,0,1,77.38,141Zm113.2-62v30.49a15.41,15.41,0,0,1-9.52,14.22c-6.32,34.94-36.65,57.43-74.47,60.49a13,13,0,1,1-.25-8.74c32.69-2.8,59.06-21.33,65.57-50.89a15.46,15.46,0,0,1-9.77-6.52,70.25,70.25,0,0,1-33,40c-.22.11-.42.25-.63.36a1,1,0,0,1-.29.07,1.14,1.14,0,0,1-.31-.07l-.38-.17a1.06,1.06,0,0,1-.19-.14,1.24,1.24,0,0,1,0-1.74l.07-.07c15.36-14.05,16.3-27.8,14.61-47.86-1.48-17.55-11.75-34.19-16.92-41.71l-.37.23a1.6,1.6,0,0,0-2.9.69,35.1,35.1,0,0,1-2.55,10.59c-3.48,7.62-9.18,12.2-17.53,13.73-13.14,2.4-26.21,5.18-39.34,7.63-8.18,1.52-15.21,10.73-13.83,20.1,3.12,21.32,17.52,36.6,21.52,39.56a1.33,1.33,0,0,0-.73-.25c-.26,0-.56.29-.83.63a8.12,8.12,0,0,0-.76,1.24,70.34,70.34,0,0,1-37.56-39.5A15,15,0,0,1,18.56,127,15.22,15.22,0,0,1,3.42,111.73V81.6a15.24,15.24,0,0,1,12.48-15C23.17,28.66,56,0,95.62,0c38.52,0,70.65,27.15,79.06,63.56H175A15.48,15.48,0,0,1,190.58,79h0Zm-28-9.12c-5.82-32.14-33.58-56.5-67-56.5-33.58,0-61.43,24.6-67.06,57A16.53,16.53,0,0,1,30.2,72a69.73,69.73,0,0,1,130.88.33,16.4,16.4,0,0,1,1.54-2.44Z" style="fill:#6cc"/></svg>