<svg id="图层_1" data-name="图层 1" xmlns="http://www.w3.org/2000/svg" viewBox="0 0 194 193.27"><title>environment</title><path d="M129.21,129.67V112.3l-22.8,40.51,22.8,40.46V176H152a15.53,15.53,0,0,0,13.74-8.07l28.25-50a22.91,22.91,0,0,1-20.08,11.78H129.21ZM142.12,14a17.76,17.76,0,0,0-31.21.06c0,.06-5.21,9.25-10.48,18.67L111,51.59l-14.8,8.48h45.72l22.86-40.46-14.63,8.66S144.43,18.08,142.12,14ZM190.27,115.6a18.72,18.72,0,0,0-.12-18.49s-11.31-20-20.31-36l-39.2,23.14,22.86,40.51h21.08a18,18,0,0,0,15.69-9.19ZM53.89,106.17l14.69,8.72L45.72,74.43H0L14.69,83,3.32,103.23a16.29,16.29,0,0,0-.12,16.19l28.25,50a24.09,24.09,0,0,1,.06-23.67l22.38-39.57ZM35.29,167.24a17.85,17.85,0,0,0,15.63,9.19H91.55V130.14H45.89c-5.33,9.42-10.54,18.67-10.54,18.67a18.61,18.61,0,0,0-.06,18.43Zm-2.61-117L72,73.55s29.55-52.35,34.94-61.83A22.44,22.44,0,0,1,126.61,0H70.17A16.07,16.07,0,0,0,56.49,8.19c-5,8.3-23.81,42.1-23.81,42.1Z" style="fill:#6cc"/></svg>