<svg id="图层_1" data-name="图层 1" xmlns="http://www.w3.org/2000/svg" viewBox="0 0 194 193.27"><title>gas</title><path d="M168.32,88l-29.81.46a78.12,78.12,0,0,0-5.66-6.54v-39A95.94,95.94,0,0,0,150,28.8h38V14.2H9.73V28.8H46.81a89.22,89.22,0,0,0,17.4,15.79V80a60.89,60.89,0,0,0-5.5,4.77H23.39C13.76,52.66,0,78.8,0,78.8v79.8c11,29.35,23.39-.92,23.39-.92H58.7c32.56,46.78,80.72,2.75,80.72,2.75h31.65c13.3,27.06,22.93,0,22.93,0V77C173.2,53.57,168.32,88,168.32,88ZM133.86,28.8c-38.68,30.37-68.21,3.81-72.1,0ZM76.59,72.14v-21c16.22,6.33,31.48,3.74,43.87-1.6V72C104.19,62.57,88.22,66.31,76.59,72.14Z" style="fill:#6cc"/></svg>