<svg id="图层_1" data-name="图层 1" xmlns="http://www.w3.org/2000/svg" viewBox="0 0 184.64 193.27"><title>house</title><path d="M182.58,82h-34.2V10.53c0-4.17-4-7.54-8.94-7.54H60.52c-4.94,0-8.94,3.37-8.94,7.54V55.64H17.37c-8.07,0-9.69,6.42-9.69,10.11V186.22a9.58,9.58,0,0,0,9.69,10H60.23c.1,0,.19,0,.29,0H86.77V169.89h26.36v26.37h26.3c.1,0,.19,0,.29,0h42.85a9.81,9.81,0,0,0,9.74-9.88V92C192.32,85.68,188,82,182.58,82Zm-131,61.53H25.26V126H51.62Zm0-43.94H25.26V82H51.62Zm70.3,43.94H78V126h43.94Zm0-43.94H78V82h43.94Zm0-43.94H78V38.07h43.94Zm52.73,87.88H148.29V108.38h26.36Z" transform="translate(-7.68 -2.99)" style="fill:#6cc"/></svg>