<svg id="图层_1" data-name="图层 1" xmlns="http://www.w3.org/2000/svg" viewBox="0 0 193.68 193.27"><title>未标题-1</title><path d="M77.12,122.49c17.37,17.24,37.48,33.72,45.37,25.76,11.3-11.38,18.26-21.29,43.34-1.29s5.93,33.48-5,44.51c-12.63,12.73-59.95.89-106.85-45.65S-5.13,52,7.51,39.31C18.46,28.28,31.78,9,52,34s10.34,32-1,43.35c-7.89,8,8.73,27.93,26.1,45.18Zm25.19-82.27s-5.24-.82-8.91,2.85a10.19,10.19,0,0,0,0,14.26,11.33,11.33,0,0,0,5.67,2.85c6.47,1.21,16.21,3.27,26.58,13.63s12.42,20.11,13.63,26.58a11.34,11.34,0,0,0,2.85,5.67,10.2,10.2,0,0,0,14.26,0c3.67-3.67,2.85-8.91,2.85-8.91a69,69,0,0,0-57-57ZM151.46,48c19,19,27.11,40.58,24.47,58.06,0,0-.92,5.54,2.7,9.15a10.16,10.16,0,0,0,14.33,0,12.67,12.67,0,0,0,3-6.43c2.18-15.1-.56-45.49-30.18-75.1s-60-32.35-75.1-30.18a12.66,12.66,0,0,0-6.43,3,10.16,10.16,0,0,0,0,14.33c3.62,3.62,9.15,2.69,9.15,2.69C110.89,20.93,132.46,29,151.46,48Zm0,0" transform="translate(-2.83 -2.99)" style="fill:#6cc"/></svg>