<svg id="图层_1" data-name="图层 1" xmlns="http://www.w3.org/2000/svg" viewBox="0 0 194 193.27"><title>build</title><path d="M115.32,140.85a9.84,9.84,0,1,0-9.84,9.83A9.83,9.83,0,0,0,115.32,140.85Zm77.74-63.4C191.21,69.39,186.58,63,178.87,63H163.39c-.1-3.64,0-7.38,0-11.11.09-5.12.18-10.24,0-15.27a4.05,4.05,0,0,0-4.27-3.82h-.18c-7.89-.17-18.46-.09-28,0H118.66A4,4,0,0,0,115,35c-5.48,8.24-12.62,19.87-18.65,29.86-1.3,2.07-2.5,4.07-3.71,6.07-2.78-3.56-5.85-7.64-9-11.71C78.85,53,74,46.82,70.79,42.65c-3.71-4.6-7.43-6.67-11.6-6.33-3.81.26-7.43,2.61-11.32,6.86L26.35,66.52a3.83,3.83,0,0,0-.19,4.86c1.3,1.82,2.23,3.39,3.25,5a91.1,91.1,0,0,0,6.11,8.94,4.32,4.32,0,0,0,5.76.87,6.37,6.37,0,0,0,1.11-1c2-2.35,3.44-4.08,4.92-5.83q5.11-6.1,10.39-12.05c1-1.21.84-2.08,1.12-1.91,1.11.52,3.07,3.13,6,7.47l24.68,35.32c.83,1.13,4.75,3.18,6.13,3.18,28.49.44,50.2,0,78.67,0l4.54-1.45c7.52,0,12.25-6.51,14.1-14.83a39.13,39.13,0,0,0,1-8.86,44.21,44.21,0,0,0-.94-8.76ZM154.66,67.39A4.45,4.45,0,0,1,150.35,72H120.22a4.15,4.15,0,0,1-2.12-.62,4.73,4.73,0,0,1-1.63-6.27l10.45-19.84a4.34,4.34,0,0,1,3.94-2.78h19.48a4.53,4.53,0,0,1,4.31,4.63V67.39ZM66,118.06c-9-1.82-16-4.07-20.78-7.89-4.63-3.65-7.51-9-8.81-17.1a3.11,3.11,0,0,0-.75-1.73L24.39,75.29a4.25,4.25,0,0,0-5.74-1.13,2.34,2.34,0,0,0-.56.43C6.3,84.13-2.69,95.51.74,110.86a28.85,28.85,0,0,0,7,13.11,34.77,34.77,0,0,0,12.53,9c13.07,5.55,30.71,4.69,47.59-8.08a3.78,3.78,0,0,0,.65-5.47A4.22,4.22,0,0,0,66,118.06Zm78.87,22.79a9.83,9.83,0,1,0-9.84,9.83A9.82,9.82,0,0,0,144.83,140.85ZM184.94,127a18.92,18.92,0,0,0-13.54-5.79H95.15A18.92,18.92,0,0,0,81.62,127a19.81,19.81,0,0,0-.18,27.48c0,.09.09.18.18.28a18.92,18.92,0,0,0,13.53,5.79H171.4A18.94,18.94,0,0,0,184.66,155l.28-.28a19.94,19.94,0,0,0,.18-27.57C185.12,127.07,185,127.07,184.94,127Zm-7.57,20.78-.17.16a10.76,10.76,0,0,1-7.27,2.77H96.4A10.79,10.79,0,0,1,89,147.76a.18.18,0,0,1-.17-.17,9.28,9.28,0,0,1-3-6.77A9.49,9.49,0,0,1,89,133.88,10.86,10.86,0,0,1,96.4,131h73.52a11.53,11.53,0,0,1,7.65,3.07l0,0a9.19,9.19,0,0,1-.17,13.71Zm-3-6.9a9.83,9.83,0,1,0-9.84,9.83A9.82,9.82,0,0,0,174.33,140.85Z" style="fill:#6cc"/></svg>