<svg id="图层_1" data-name="图层 1" xmlns="http://www.w3.org/2000/svg" viewBox="0 0 193.85 173.44"><title>market</title><path d="M196.85,84.68a24.23,24.23,0,0,1-48.46,0,24.23,24.23,0,0,1-48.46,0,24.23,24.23,0,0,1-48.46,0,24.08,24.08,0,0,1-24.23,23.93A24.08,24.08,0,0,1,3,84.68L20,39.82H179.8l17,44.87ZM166.58,30.85H33.28a9,9,0,1,1,0-17.95H166.57a9,9,0,1,1,0,17.95ZM30.25,117.42c.87-.07,1.73-.21,2.58-.35l.55-.07c.4-.07.78-.18,1.16-.27a36,36,0,0,0,4.8-1.43v44.15H160.51V115.29a33.38,33.38,0,0,0,4.8,1.42c.39.1.76.21,1.15.28l.56.07a33,33,0,0,0,11.67-.07v60.4a9,9,0,0,1-9.1,9H30.26a9,9,0,0,1-9.08-9V117a33.89,33.89,0,0,0,9.1.41Zm0,0" transform="translate(-3 -12.9)" style="fill:#6cc"/></svg>