<svg id="图层_1" data-name="图层 1" xmlns="http://www.w3.org/2000/svg" viewBox="0 0 194 193.27"><title>science</title><path d="M190.64,144C185,152.59,173.4,157,157.36,157a120.7,120.7,0,0,1-21-2.1c-8.77,24.5-22.82,38.4-39.34,38.4s-30.55-13.9-39.32-38.4A119,119,0,0,1,36.24,157c-15.87,0-27.19-4.3-32.88-13-8-12.1-1.6-29.11,17.31-47.4C1.75,78.33-4.6,61.32,3.36,49.22c7.86-11.93,27.41-15.71,54.32-10.81C66.44,13.88,80.49,0,97,0s30.57,13.88,39.34,38.41a115.25,115.25,0,0,1,23-2.15c15,.28,25.81,4.62,31.3,13,8,12.1,1.6,29.11-17.31,47.41C192.25,114.92,198.6,131.94,190.64,144ZM75.07,141.85C81.89,166.1,92.13,175.14,97,175.14c4.29,0,12.73-7,19.33-25.13a248.41,248.41,0,0,1-23.79-8.49c-6.6-2.75-13.11-5.72-19.29-8.87l-.3-.17c.66,3.17,1.29,6.36,2.12,9.37ZM21.4,135c2,3,12.08,5.66,31.43,2.22a180.55,180.55,0,0,1-3.56-22.31c-.48-5.47-.71-11.13-.76-16.78-2.14,1.64-4.23,3.3-6.18,5C22.73,119.74,19.09,131.51,21.4,135ZM62.15,58c-25.47-6.25-38.52-3.15-40.77.27-2,3,.53,12.38,14.18,25.74q8.3-6.3,18.07-12.38c6.27-3.85,12.67-7.44,19-10.69-3.56-1.1-7.09-2.11-10.5-2.95Zm56.78-6.57C112.11,27.15,101.87,18.11,97,18.11c-4.27,0-12.71,7-19.31,25.15a241.29,241.29,0,0,1,23.79,8.49q9.85,4.07,19.29,8.86a2.12,2.12,0,0,1,.3.17c-.65-3.17-1.29-6.36-2.12-9.37Zm5.24,32.54c-4.61-2.71-9.24-5.32-13.86-7.66C106,74.1,101.53,72,97,70c-4.53,2-9,4.05-13.3,6.23-4.63,2.35-9.26,5-13.86,7.66-.28,4.2-.57,8.4-.57,12.69s.29,8.5.57,12.7c4.61,2.69,9.24,5.32,13.86,7.64,4.29,2.2,8.77,4.26,13.3,6.24,4.54-2,9-4,13.32-6.21,4.63-2.35,9.26-5,13.86-7.66.27-4.2.55-8.41.55-12.7s-.28-8.49-.55-12.69Zm-2.82,48.39c3.56,1.1,7.07,2.11,10.5,2.95,25.45,6.26,38.5,3.14,40.77-.25,2-3.07-.55-12.39-14.18-25.77-5.53,4.2-11.57,8.35-18.07,12.38-6.27,3.87-12.67,7.44-19,10.68ZM172.6,58.22c-2-3-12.1-5.67-31.43-2.22a177.06,177.06,0,0,1,3.54,22.3c.5,5.47.74,11.11.78,16.79q3.16-2.42,6.18-5C171.27,73.51,174.91,61.74,172.6,58.22ZM97,108.71c-7.64,0-13.86-5.41-13.86-12.07S89.35,84.54,97,84.54,110.85,90,110.85,96.63,104.65,108.71,97,108.71Z" style="fill:#6cc"/></svg>