<svg id="图层_1" data-name="图层 1" xmlns="http://www.w3.org/2000/svg" viewBox="0 0 63.7 60.91"><title>水站</title><path d="M30.52,2.19.71,26a1.47,1.47,0,0,0,.91,2.62h.13l.16-.13v.13H5.68a1.47,1.47,0,0,1,1.47,1.48v31a1.47,1.47,0,0,0,1.47,1.47H55.38a1.47,1.47,0,0,0,1.47-1.47v-31a1.47,1.47,0,0,1,1.47-1.48h4.06A1.47,1.47,0,0,0,63.29,26L33.48,2.19A2.38,2.38,0,0,0,30.52,2.19ZM50.37,48.73v1.2a1.47,1.47,0,0,1-1,1.39,11.6,11.6,0,0,1-9.05-.85,1.36,1.36,0,0,0-1.5,0,11.79,11.79,0,0,1-11.52-.23,1.44,1.44,0,0,0-1.42,0c-4.26,2.43-9.1,1.49-11.2.88a1.46,1.46,0,0,1-1.06-1.41v-.51a1.48,1.48,0,0,1,2.13-1.31c3.44,1.57,6.91.94,10.17-.89a1.52,1.52,0,0,1,1.36,0c5.29,2.53,7.69,2.2,11.43.14a1.46,1.46,0,0,1,1.53.08,8.58,8.58,0,0,0,8.64.64,1,1,0,0,1,1.48.88Zm0-8.49v1.19a1.45,1.45,0,0,1-1,1.39A11.64,11.64,0,0,1,40.33,42a1.38,1.38,0,0,0-1.5,0,11.76,11.76,0,0,1-11.52-.22,1.39,1.39,0,0,0-1.42,0c-4.26,2.43-9.1,1.48-11.2.88a1.47,1.47,0,0,1-1.06-1.41v-.51a1.48,1.48,0,0,1,2.13-1.32c3.44,1.58,6.91.94,10.17-.88a1.46,1.46,0,0,1,1.36,0c5.29,2.53,7.69,2.19,11.43.14a1.44,1.44,0,0,1,1.53.08,8.6,8.6,0,0,0,8.64.64,1,1,0,0,1,1.48.88Zm0-8.5v1.2a1.46,1.46,0,0,1-1,1.39,11.6,11.6,0,0,1-9.05-.85,1.38,1.38,0,0,0-1.5,0,11.76,11.76,0,0,1-11.52-.23,1.44,1.44,0,0,0-1.42,0c-4.26,2.43-9.1,1.49-11.2.89a1.47,1.47,0,0,1-1.06-1.42v-.51a1.48,1.48,0,0,1,2.13-1.31c3.44,1.57,6.91.94,10.17-.89a1.48,1.48,0,0,1,1.36,0c5.29,2.52,7.69,2.19,11.43.14a1.43,1.43,0,0,1,1.53.07,8.6,8.6,0,0,0,8.64.65,1,1,0,0,1,1.48.87Z" transform="translate(-0.15 -1.67)" style="fill:#722ed1"/></svg>