<svg id="图层_1" data-name="图层 1" xmlns="http://www.w3.org/2000/svg" viewBox="0 0 193.99 194.14"><title>city</title><path d="M100,165.57c10.21,0,55-63.75,55-98.88s-24.63-63.6-55-63.6S45,31.56,45,66.69s43.57,98.88,55,98.88ZM74.68,63.37C74.68,47.2,86,34.09,100,34.09s25.33,13.11,25.33,29.29S114,92.66,100,92.66,74.68,79.54,74.68,63.37Zm0,0" transform="translate(-3 -3.08)" style="fill:#6cc"/><path d="M158.45,131.25H145.28l29,45.2H113.88s-4.54,3.7-5.78,4.55-6,4-7.88,4.2l0,0a.76.76,0,0,1-.16,0,.77.77,0,0,1-.16,0v0c-1.86-.18-6.78-3.41-8-4.2s-5.78-4.55-5.78-4.55H25.72l29-45.2H41.55L3,185.75H81.88s5.93,4.84,7.55,5.94,8,5.26,10.38,5.49l0,0a1.21,1.21,0,0,0,.21,0,1.35,1.35,0,0,0,.21,0l0,0c2.42-.24,8.75-4.46,10.29-5.49s7.55-5.95,7.55-5.95H197Zm0,0" transform="translate(-3 -3.08)" style="fill:#6cc"/></svg>