<svg id="图层_1" data-name="图层 1" xmlns="http://www.w3.org/2000/svg" viewBox="0 0 194 193.27"><title>housekeeping</title><path d="M194,168.31a10.17,10.17,0,0,1-10.15,10.16H134.26a10.16,10.16,0,1,1,0-20.31h15.37L113.37,63.39l-.07-.23a2.93,2.93,0,0,0-1.85-2l-86-29.8a6.92,6.92,0,0,0-4.53,13.08l40.35,14A19.09,19.09,0,0,1,73.59,81l0,.09L70.42,93.51l3.26.62-.27,0a84.28,84.28,0,0,1,30.86,15.62c14.08,11.52,22.16,27.15,22.16,42.86,0,8-4.31,11.6-7.92,13.21-4,1.79-8.87,1.94-13.11,1.94H60.86A34,34,0,1,0,1.51,135v-23.2A24.1,24.1,0,0,1,6.6,96.66a17,17,0,0,1,13.28-6.72H41.24c4.63,0,9,.23,13.13.64l3.45-13.41a2.92,2.92,0,0,0-1.9-3.4l-40.35-14A23.14,23.14,0,1,1,30.72,16.08l86,29.8a19.2,19.2,0,0,1,12,12.4L167,158.16h16.85A10.17,10.17,0,0,1,194,168.31ZM61.38,149.37a29.1,29.1,0,1,1-29.1-29.1A29.1,29.1,0,0,1,61.38,149.37Zm-15.87,0a13.23,13.23,0,1,0-13.23,13.23A13.23,13.23,0,0,0,45.51,149.37Z" style="fill:#6cc"/></svg>