<svg id="图层_1" data-name="图层 1" xmlns="http://www.w3.org/2000/svg" viewBox="0 0 194 193.27"><title>municipal</title><path d="M182.52,43.46H128.66V19.05c0-7.17-4.52-13-11.48-13H13a13.14,13.14,0,0,0-13,13V174.23a13.13,13.13,0,0,0,13,13H117.18a10.52,10.52,0,0,0,5.88-1.89,12.51,12.51,0,0,0,5.65,1.5h53.81c7,0,11.48-5.81,11.48-13V56.42C194,49.27,189.48,43.46,182.52,43.46ZM71.24,44.72H95.82V57.11H71.24Zm-38.57,0H57.25V57.11H32.67Zm0,38.74H57.25V95.85H32.67ZM57.45,134.6H32.87V122.21H57.45ZM71.24,83.46H95.82V95.85H71.24ZM96,134.6H71.41V122.21H96Zm46.48-51.34h24.58V95.65H142.48Zm24.75,51.13H142.65V122h24.58Z" style="fill:#6cc"/></svg>