<svg id="图层_1" data-name="图层 1" xmlns="http://www.w3.org/2000/svg" viewBox="0 0 194 193.27"><title>power</title><path d="M170.07,74a7.76,7.76,0,0,0-6.72-4.17h-.41l-45.12-.29,11.61-57.7a4.71,4.71,0,0,0,.08-.48c.41-3.61-.32-6.48-2.17-8.51A8.19,8.19,0,0,0,121.16.14a13,13,0,0,0-5.92,1.62,5.73,5.73,0,0,0-1.59,1.31L26.84,105.79a5.39,5.39,0,0,0-.38.5,7.82,7.82,0,0,0-.64,8c.8,1.48,2.87,4,7.71,4l.73,0,39.95,0L51.9,182.82a5.52,5.52,0,0,0-.27,1.14,8.63,8.63,0,0,0,2,6.68,8.1,8.1,0,0,0,6.15,2.63,13.2,13.2,0,0,0,4.86-1,5.84,5.84,0,0,0,2.08-1.41L168.56,83.05a5.68,5.68,0,0,0,.59-.73c.68-1,2.77-4.61.93-8.36Z" style="fill:#6cc"/></svg>