<svg id="图层_1" data-name="图层 1" xmlns="http://www.w3.org/2000/svg" viewBox="0 0 194 193.27"><title>school</title><path d="M89.69,70.17a8.21,8.21,0,0,0,16.42,0h0a8.21,8.21,0,1,0-16.42,0h0Z" style="fill:#6cc"/><path d="M181.61,28.63C124.3,31,97.4,0,97.4,0s-27.15,31-85,28.63c-1.47-.06,0,93.06,0,93.06s47.1,71.58,85,71.58c37.54,0,84.21-71.58,84.21-71.58S183.06,28.57,181.61,28.63Zm-33,117.64h-99v-5h99ZM55.22,92.74V90.31H77.28v2.43s-3.41,1-4.7,2.6c0,2.27-.32,33.09-.32,33.09H59.92l.16-32.77s-2.11-2.6-4.87-2.92Zm88.24,40.88v4.87H52.3v-4.87ZM86.36,92.74V90.31h22.06v2.43s-3.41,1-4.7,2.6c0,2.27-.32,33.09-.32,33.09H91.07l.16-32.77s-2.11-2.6-4.87-2.92Zm32.12,0V90.31h22.06v2.43s-3.41,1-4.7,2.6c0,2.27-.32,33.09-.32,33.09H123.19l.16-32.77s-2.11-2.6-4.87-2.92Zm30.09-7.95h-99V80.25L95.61,47h4.87l48.1,33.25v4.54Z" style="fill:#6cc"/></svg>