<svg id="图层_1" data-name="图层 1" xmlns="http://www.w3.org/2000/svg" viewBox="0 0 194 193.27"><title>disaster</title><path d="M84.33,69.86,63.39,129.31H93.11l-15.55,64,53.18-89.93H103.9l15.93-33.49Z" style="fill:#6cc"/><path d="M144.91,33H137c-3.14-7.78-7.78-15.68-15.68-21.95A47.77,47.77,0,0,0,90,0,48.87,48.87,0,0,0,41.31,48.66,34.8,34.8,0,0,0,6.82,83.15c0,18.81,15.8,34.49,34.62,34.49H55.61L76.43,58.57h61.2L121.71,92.06h29.72l-16.56,25.59h8.4c23.58,0,42.39-18.81,43.9-42.39A42.13,42.13,0,0,0,144.91,33Z" style="fill:#6cc"/></svg>