<svg id="图层_1" data-name="图层 1" xmlns="http://www.w3.org/2000/svg" viewBox="0 0 194 193.27"><title>drug</title><path d="M46.85,36.63a8.65,8.65,0,0,1-5.1-1.24,7.2,7.2,0,0,1-2.43-2.94,10.1,10.1,0,0,1-1-4.42V11.78a11.34,11.34,0,0,1,1.82-7,13.07,13.07,0,0,1,4-3.53A13.69,13.69,0,0,1,50,0h94a13.69,13.69,0,0,1,5.82,1.24,13,13,0,0,1,4,3.53,11.34,11.34,0,0,1,1.82,7V28a10.11,10.11,0,0,1-1,4.42,7.51,7.51,0,0,1-2.31,2.94,8.06,8.06,0,0,1-5,1.24ZM173.34,173.79a24,24,0,0,1-1.94,9.84,18.85,18.85,0,0,1-5.22,6.65,15.41,15.41,0,0,1-10.08,2.94h-118a15.31,15.31,0,0,1-10.19-2.94,19.35,19.35,0,0,1-5.1-6.65,27.12,27.12,0,0,1-2.18-9.84V81.86a17.9,17.9,0,0,1,2.94-11.54c1.94-2.3,3.72-4.3,5.34-5.95l17.24-16.2H151.28l13.84,16.2c1.61,1.65,3.4,3.65,5.34,5.95a17.94,17.94,0,0,1,2.91,11.54v91.93Zm-37.87-63.43H110v-26H84v26H58.5v26.33H84v25.8h26v-25.8h25.49Z" style="fill:#6cc"/></svg>