<svg id="图层_1" data-name="图层 1" xmlns="http://www.w3.org/2000/svg" viewBox="0 0 194 193.27"><title>finance</title><path d="M44.77,139.64H9a9,9,0,0,0-9,9v35a9,9,0,0,0,9,9H77.65a87.76,87.76,0,0,1-32.88-53Zm84.63-83a64.6,64.6,0,1,0,64.6,64.6,64.6,64.6,0,0,0-64.6-64.6Zm28,73.17q6.39,0,6.39,5.23-.59,4.07-6.39,4.65H137.09v17.27q0,5.81-6.39,5.81t-6.39-5.81V139.67H104q-5.81-.57-6.39-4.65,0-5.23,6.39-5.23h20.33V119.34H104q-5.81-.57-6.39-4.65,0-5.23,6.39-5.23h13.94L107.55,93.2A1.72,1.72,0,0,0,107,92a21.84,21.84,0,0,1-1.74-4.65,5.47,5.47,0,0,1,5.23-5.23,7.55,7.55,0,0,1,7,4.07L130.7,106l13.45-20.12a7.54,7.54,0,0,1,7-4.07A5.48,5.48,0,0,1,156.35,87c0,.78-.58,2.32-1.74,4.65a1.68,1.68,0,0,0-.58,1.16l-10.55,16.64h13.94q6.39,0,6.39,5.23-.59,4.07-6.39,4.65H137.09V129.8h20.33ZM9,53.63h68A87.41,87.41,0,0,1,131,35.14q3.31,0,6.56.24V9.64a9,9,0,0,0-9-9H9a9,9,0,0,0-9,9v35a9,9,0,0,0,9,9Zm0,69.69H43.18c0-.13,0-.26,0-.39A87.39,87.39,0,0,1,60.7,70.29H9a9,9,0,0,0-9,9v35a9,9,0,0,0,9,9Z" style="fill:#6cc"/></svg>