<svg id="图层_1" data-name="图层 1" xmlns="http://www.w3.org/2000/svg" viewBox="0 0 194 193.27"><title>livelihood</title><path d="M18.65,94.93c13.67,8.86,29,13.22,44.87,16.21L73.7,113l0,1.06L50.53,124.87c15.5,6.94,30.06,13.49,44.67,20a4.12,4.12,0,0,0,3-.1c14.47-6.43,28.91-12.94,44.36-19.88-13.62-6.17-26.19-12.07-39-17.54-3.92-1.68-8.29-2.43-12.53-3.17-6.09-1.06-12.34-1.33-18.37-2.64-13-2.84-25.2-7.64-34.39-17.93-8.18-9.16-8.61-20.75-.58-30a47.37,47.37,0,0,1,11.71-9.85c17.91-10.43,37.54-12.8,57.82-11,13.24,1.14,26,4.4,37.33,11.53,8.27,5.18,15.17,11.59,16.42,22.14a3.15,3.15,0,0,0,2.25,2c9.79.14,19.59.09,30.75.09-1.79-5-2.73-9.51-4.85-13.31-5.47-9.77-14.51-15.66-24.26-20.44-16.51-8.09-34.16-11.88-52.39-13.3-26.08-2-51.65.25-76.23,9.72C25.16,35.38,14.84,41.08,7,50.41c-9.74,11.67-9.39,25,1.12,35.92A59.15,59.15,0,0,0,18.65,94.93Zm77.66,21.13c.74-.31,2,.43,3,.86,5.35,2.4,10.68,4.84,16,7.27l0,1.28c-5.87,2.63-11.74,5.29-17.64,7.85a3.08,3.08,0,0,1-2.2,0c-5.91-2.56-11.77-5.2-17.65-7.82l-.19-1.31C83.83,121.45,90,118.65,96.31,116.06Zm85.6-12.31a50.7,50.7,0,0,0-5-3.93c-10-7-21.24-11.48-33-14.47-8.09-2.06-16.31-3.6-25.84-5.67l24.31-11.43c-15.17-6.84-29.6-13.37-44.08-19.8a4.74,4.74,0,0,0-3.45,0C80.37,54.84,65.94,61.36,50.54,68.29c15.54,7,30,13.57,44.46,20,1.73.76,3.83.76,5.78.95,4.21.4,8.47.43,12.64,1.07,14.24,2.2,27.72,6.44,38.64,16.4,12.11,11,12.1,25.78-.12,36.65A57.33,57.33,0,0,1,140,151.49c-18,9.18-37.29,10.73-57,8.67-13.68-1.43-26.68-5.26-38-13.48-6.65-4.84-11.74-10.8-13.08-19.39-.17-1.08-2.34-2.59-3.62-2.62-8.16-.24-16.34,0-24.51-.2C.3,124.38-.68,126,.46,128.86c1.85,4.57,3.49,9.44,6.38,13.32,6.89,9.23,16.75,14.75,27.27,18.85,36.19,14.1,73.11,14.67,110.37,5,13.87-3.59,26.86-9.28,37.59-19.18C196.69,133.4,196.62,117.1,181.91,103.75ZM97.46,76.93a3,3,0,0,1-2.17-.1c-5.87-2.59-11.71-5.26-17.56-7.91l.07-1.26c5.72-2.6,11.43-5.22,17.16-7.78a3.13,3.13,0,0,1,2.15-.32c6.14,2.66,12.24,5.43,19.65,8.75C109.45,71.59,103.47,74.31,97.46,76.93Z" style="fill:#6cc"/></svg>