<svg id="图层_1" data-name="图层 1" xmlns="http://www.w3.org/2000/svg" viewBox="0 0 194 193.27"><title>network</title><path d="M113.35,18.71C131.89,8.24,153.32-.09,175,4.09c11.19,2.7,19.07,13.48,20,24.68,2,12.64-2.52,24.8-5.44,36.89.43-9.38,4-18.73,1.61-28.13-1.37-9.55-9.62-17.18-19-18.59-12.51-2.6-25.09,1.64-36.68,6,9.71,4.6,20.44,7.76,28.2,15.55,10.24,6.92,17,17.42,23.56,27.59,3.22,8,6.26,16.07,9,24.2,1.52,9.13.27,18.46.74,27.67-42.62.09-85.26-.08-127.89.09,4,10.71,10.89,21,21.62,25.81,16.5,9.19,38.27,4.36,50.54-9.73,17.34,0,34.69,0,52.06,0-10.45,31.48-39.26,56.49-72.52,60.07q-11.33.11-22.64,0c-33.81-3.55-63.05-29.32-73.09-61.5-3.61,11.58-8.25,23.58-6.11,35.94.9,9.69,8.39,18.67,18.2,20.34,9.7,2.6,19.38-.9,29-1.9-12.76,3.59-26,8.51-39.45,5.45-12-1.57-22.13-11.89-23.24-24C1,149.48,10,129.26,20,111.32c2.42-4.36,1.84-9.55,2.49-14.32,4.44-38.28,37.31-71,75.66-75.11,5.12-.69,10.76,0,15.24-3.18ZM72.5,89.33q36.87-.08,73.73,0c-8.1-14.18-24.46-23.67-40.94-21.59-13.78,1-25.88,9.92-32.78,21.62Zm0,0" transform="translate(-3 -2.99)" style="fill:#6cc"/></svg>