<svg id="图层_1" data-name="图层 1" xmlns="http://www.w3.org/2000/svg" viewBox="0 0 168.77 193.14"><title>traffic</title><path d="M158.47,66.51a3.82,3.82,0,0,1-6.26-3.31l.12-31.64a4.09,4.09,0,0,1,3.9-4.25l24.32.41a4.3,4.3,0,0,1,2.36,7.5Zm-34.35,89.6H112v40.2H87.93v-40.2H75.83a12,12,0,0,1-12-12.1V15.28a12.1,12.1,0,0,1,12-12.1h48.28a12,12,0,0,1,12,12.1V144a12.14,12.14,0,0,1-12,12.1ZM100,19.29a12.07,12.07,0,1,0,12,12.1,12.07,12.07,0,0,0-12-12.1Zm0,48.28a12.07,12.07,0,1,0,12,12.1,12.07,12.07,0,0,0-12-12.1Zm0,48.29A12.07,12.07,0,1,0,112,128a12.07,12.07,0,0,0-12-12.1Zm-58.5,7.2L17,98a3.36,3.36,0,0,1,2.42-6l24.32-.29a3.65,3.65,0,0,1,3.9,3.36l.12,25.32a3.93,3.93,0,0,1-6.32,2.66Zm0-56.55L17,35.23a4.3,4.3,0,0,1,2.42-7.5l24.32-.41a4.09,4.09,0,0,1,3.9,4.25l.12,31.64a3.85,3.85,0,0,1-6.32,3.31Zm114.75,25.2,24.32.35a4.34,4.34,0,0,1,2.36,7.56l-24.44,31.28a3.82,3.82,0,0,1-6.26-3.31l.12-31.7a4.08,4.08,0,0,1,3.9-4.19Zm0,0" transform="translate(-15.6 -3.18)" style="fill:#6cc"/></svg>