<svg id="图层_1" data-name="图层 1" xmlns="http://www.w3.org/2000/svg" viewBox="0 0 194 193.27"><title>utility</title><path d="M142.22,83a54.13,54.13,0,0,0,6.94-26.26C149.16,27.09,125.8,3.07,97,3.07s-52.16,24-52.16,53.64A54.27,54.27,0,0,0,51.78,83C23.15,83.2,0,107.08,0,136.58S23.35,190.2,52.16,190.2c19.2,0,35.78-10.77,44.84-26.64,9.05,15.87,25.65,26.64,44.84,26.64,28.8,0,52.16-24,52.16-53.62S170.85,83.2,142.22,83Zm-90,101.58,0,0V147.11H19.82L50.5,92.47l.39.24v37.21h32ZM95.92,87.36c-11.88,0-21.53-9.91-21.53-22.14S91.26,26.6,95.92,21.8C98,46.25,117.44,53,117.44,65.22S107.82,87.36,95.92,87.36Zm58.46,76.81s-15.76,1.39-19.55-1.11c-19.83-10.91-23.63-23.2-20.1-35.19,4.08,7.24,18.55,13.23,18.55,13.23s-13.41-23-7.71-27.76c3.54,3.91,8.75,12.73,11.2,8.55s2.53-14.33-1.54-17.69c19.82-3.06,17,21,17,21s10.34-9,11.1-13.73c8.7,6.14-5.81,29-5.81,29s11-1.69,14.56-6.72C175,149.08,154.38,164.17,154.38,164.17Z" style="fill:#6cc"/></svg>