<?xml version="1.0" encoding="utf-8"?>
<!-- Generator: Adobe Illustrator 21.1.0, SVG Export Plug-In . SVG Version: 6.00 Build 0)  -->
<svg version="1.1" id="图层_1" xmlns="http://www.w3.org/2000/svg" xmlns:xlink="http://www.w3.org/1999/xlink" x="0px" y="0px"
	 viewBox="0 0 73.6 200" style="enable-background:new 0 0 73.6 200;" xml:space="preserve">
<style type="text/css">
	.st0{fill:#66CCCC;}
</style>
<title>men</title>
<path class="st0" d="M55.4,61v124.7c0,3.8,0.3,7.9-1.1,10.2c-1.2,1.9-3.3,2.3-5.6,3.2c-0.8,0.4-3-0.2-3.4-0.3
	c-1.2-0.4-1.9-0.2-2.8-0.7c-4.6-2.3-3.5-10.7-3.5-17.5l-0.1-66.5c-1.2,0-3.1-0.2-4,0.2c0,18.6-0.2,38.1-0.2,57.1v16.4
	c0,2.6,0.5,5.1-0.5,7.2c-1.5,3.3-6.5,5.3-11,3.8c-2-0.7-3.6-2.4-4.3-4.4c-0.5-1.7,0-3.1-0.3-5.2l-0.1-24.4L18.3,61
	c-0.8,0-1.6,0.2-2.3,0.5v55.9c-1.7,2.5-3.2,7.2-8.9,5.6c-6.8-2-4.9-13.9-4.9-22.6V64.8c0-13-1-21.4,8.1-25.6
	c4.3-2,11.4-1.5,17.6-1.5h19.4c5,0,10.5-0.1,14.1,0.8c3.2,0.8,6.1,2.8,8,5.6c3.4,5.3,2.1,21.6,2.1,30.5v34.1c0,6.5,0.6,11.9-3.9,14
	c-1.6,0.5-3.4,0.5-5,0c-4.9-1.9-4.4-6.6-4.4-13.3L58,61H55.4z"/>
<path class="st0" d="M36.9,33.6c9-0.1,16.3-7.5,16.2-16.6c0,0,0,0,0,0c0.2-8.9-6.9-16.4-15.8-16.6S20.9,7.3,20.7,16.3
	c0,0.3,0,0.5,0,0.8C20.6,26.1,27.9,33.5,36.9,33.6C36.9,33.6,36.9,33.6,36.9,33.6z"/>
</svg>
