<svg id="图层_1" data-name="图层 1" xmlns="http://www.w3.org/2000/svg" viewBox="0 0 194 193.27"><title>security</title><path d="M98.89,193.08a12.17,12.17,0,0,1-4.32,0c-3.15-.56-77.15-15-77.15-126.83V36a12,12,0,0,1,3.88-8.82,12.35,12.35,0,0,1,8.37-3.27c.27,0,.55,0,.81,0s2.16.13,5.23.13a110.54,110.54,0,0,0,24.65-2.64C74.73,17.92,86.47,4.74,89.93,2a10.9,10.9,0,0,1,6.8-2,12.39,12.39,0,0,1,6.8,2c4.08,2.71,18.13,16.43,30.3,19.38A109.6,109.6,0,0,0,158.29,24c3.07,0,5-.11,5.21-.13s.57,0,.84,0a12.26,12.26,0,0,1,8.34,3.26,12.06,12.06,0,0,1,3.9,8.83V66.25C176.58,178.12,102,192.52,98.89,193.08ZM143,65.26a7.38,7.38,0,0,0-10.39,0L85.2,112.48,61.38,88.75a7.4,7.4,0,0,0-10.39,0A7.31,7.31,0,0,0,51,99.1L80,128a7.38,7.38,0,0,0,10.39,0L143,75.6A7.32,7.32,0,0,0,143,65.26Z" style="fill:#6cc"/></svg>