<svg id="图层_1" data-name="图层 1" xmlns="http://www.w3.org/2000/svg" viewBox="0 0 194 193.27"><title>water</title><path d="M174.21,126.55c0-32.78-9.17-57.48-27.26-73.4-21.53-19-47.43-18-54.05-17.45H81.2a11.49,11.49,0,0,0-11.13-8H64.25a11.51,11.51,0,0,0-11.14,8H12V70.57H52.65V74c0,6,5.21,10.88,11.61,10.88h5.82C76.49,84.91,81.69,80,81.69,74V70.57h12.1l.94,0,1.09-.14c.17,0,16.45-1.6,28.36,9.11,10.07,9,15.16,24.85,15.16,47h34.87ZM46.57,22.75H88.73a9.05,9.05,0,0,0,9-9V9a9.06,9.06,0,0,0-9-9H46.57a9.06,9.06,0,0,0-9.05,9v4.66A9.06,9.06,0,0,0,46.57,22.75ZM163.39,135.46l-5.87-6.64-5.86,6.64c-4.37,5-18.64,22-18.64,33.31a24.5,24.5,0,0,0,49,0c0-11.29-14.26-28.35-18.64-33.31Zm-5.87,42.18a8.89,8.89,0,0,1-8.86-8.88c0-2.41,3.82-9,8.86-15.72,5.06,6.75,8.84,13.29,8.87,15.72a8.87,8.87,0,0,1-8.87,8.88Z" style="fill:#6cc"/></svg>